<svg width="53" height="36" viewBox="0 0 53 36" fill="none" xmlns="http://www.w3.org/2000/svg">
<path d="M14.4 31.36V35.36H10.84C7.96 35.36 5.97333 34.6133 4.88 33.12C3.78667 31.6533 3.53333 29.6667 4.12 27.16L4.92 23.72C5.21333 22.52 5.18667 21.5467 4.84 20.8C4.52 20.0533 3.61333 19.68 2.12 19.68H0V15.68H2.12C3.61333 15.68 4.52 15.3067 4.84 14.56C5.18667 13.8133 5.21333 12.84 4.92 11.64L4.12 8.2C3.53333 5.69333 3.78667 3.70667 4.88 2.24C5.97333 0.746667 7.96 0 10.84 0H14.4V4H10.84C9.85333 4 9.18667 4.32 8.84 4.96C8.49333 5.6 8.44 6.42667 8.68 7.44L9.48 10.88C9.90667 12.72 9.85333 14.2133 9.32 15.36C8.81333 16.5067 7.89333 17.28 6.56 17.68C7.89333 18.08 8.82667 18.8533 9.36 20C9.89333 21.12 9.93333 22.6133 9.48 24.48L8.68 27.92C8.44 28.9067 8.49333 29.72 8.84 30.36C9.18667 31.0267 9.85333 31.36 10.84 31.36H14.4Z" fill="black"/>
<path d="M48.7778 27.16C49.3645 29.6667 49.1111 31.6533 48.0178 33.12C46.9245 34.6133 44.9378 35.36 42.0578 35.36H38.4978V31.36H42.0578C43.0445 31.36 43.7111 31.0267 44.0578 30.36C44.4045 29.72 44.4578 28.9067 44.2178 27.92L43.4178 24.48C42.9911 22.64 43.0311 21.1467 43.5378 20C44.0711 18.8533 45.0045 18.08 46.3378 17.68C45.0045 17.28 44.0711 16.52 43.5378 15.4C43.0311 14.2533 42.9911 12.7467 43.4178 10.88L44.2178 7.44C44.4578 6.42667 44.4045 5.6 44.0578 4.96C43.7111 4.32 43.0445 4 42.0578 4H38.4978V0H42.0578C44.9378 0 46.9245 0.746667 48.0178 2.24C49.1111 3.70667 49.3645 5.69333 48.7778 8.2L47.9778 11.64C47.7111 12.84 47.7378 13.8133 48.0578 14.56C48.3778 15.3067 49.2845 15.68 50.7778 15.68H52.8978V19.68H50.7778C49.2845 19.68 48.3778 20.0533 48.0578 20.8C47.7378 21.5467 47.7111 22.52 47.9778 23.72L48.7778 27.16Z" fill="black"/>
<path d="M15 9H38" stroke="#FFE500" stroke-width="3" stroke-linecap="round"/>
<path d="M15 15H38" stroke="#FF0000" stroke-width="3" stroke-linecap="round"/>
<path d="M15 21H38" stroke="#0066FF" stroke-width="3" stroke-linecap="round"/>
<path d="M15 27H26" stroke="#05FF00" stroke-width="3" stroke-linecap="round"/>
<path d="M31 27L38 27" stroke="#8F00FF" stroke-width="3" stroke-linecap="round"/>
</svg>
