<svg width="157" height="39" viewBox="0 0 157 39" fill="none" xmlns="http://www.w3.org/2000/svg">
<path d="M65.566 20.677C67.3447 20.677 68.234 20.0177 68.234 18.699C68.234 18.1623 68.096 17.7407 67.82 17.434C67.5593 17.1273 67.0687 16.859 66.348 16.629L64.462 16.008C62.208 15.272 61.081 13.7923 61.081 11.569C61.081 10.281 61.4797 9.223 62.277 8.395C63.0897 7.55167 64.3547 7.13 66.072 7.13C66.7927 7.13 67.5057 7.21433 68.211 7.383C68.9163 7.53633 69.6677 7.78933 70.465 8.142L69.614 10.511C68.878 10.2197 68.2493 10.0127 67.728 9.89C67.222 9.752 66.7007 9.683 66.164 9.683C65.4587 9.683 64.899 9.81333 64.485 10.074C64.0863 10.3193 63.887 10.7717 63.887 11.431C63.887 11.9217 64.025 12.328 64.301 12.65C64.5923 12.9567 65.0677 13.2173 65.727 13.432L67.613 14.053C68.7477 14.4363 69.5987 14.996 70.166 15.732C70.7487 16.4527 71.04 17.411 71.04 18.607C71.04 19.987 70.603 21.1063 69.729 21.965C68.855 22.8083 67.4827 23.23 65.612 23.23C64.876 23.23 64.1093 23.1457 63.312 22.977C62.53 22.793 61.6713 22.4863 60.736 22.057L61.587 19.688C62.4457 20.056 63.174 20.3167 63.772 20.47C64.3853 20.608 64.9833 20.677 65.566 20.677ZM87.8974 11.339L84.9074 23H82.0324L80.1004 14.237L78.0534 23H75.1784L72.1884 11.339H74.9024L76.0294 15.962L76.8114 20.171L78.7894 11.339H81.4574L83.5044 20.263L84.2404 15.985L85.3444 11.339H87.8974ZM99.1744 23.115C98.3924 23.115 97.7637 22.954 97.2884 22.632C96.8284 22.31 96.4911 21.9113 96.2764 21.436C95.6171 22.0493 94.9807 22.5017 94.3674 22.793C93.7541 23.0843 93.0947 23.23 92.3894 23.23C91.3621 23.23 90.6031 22.9003 90.1124 22.241C89.6371 21.5817 89.3994 20.746 89.3994 19.734C89.3994 19.0593 89.5221 18.469 89.7674 17.963C90.0281 17.4417 90.4497 17.0353 91.0324 16.744C91.6151 16.4527 92.4124 16.307 93.4244 16.307C93.8231 16.307 94.2371 16.3377 94.6664 16.399C95.0957 16.445 95.5251 16.5063 95.9544 16.583V15.226C95.9544 14.582 95.7781 14.145 95.4254 13.915C95.0727 13.6697 94.5974 13.547 93.9994 13.547C93.5394 13.547 93.0334 13.6083 92.4814 13.731C91.9447 13.8537 91.3621 14.0453 90.7334 14.306L89.9744 12.052C91.5231 11.4233 92.9261 11.109 94.1834 11.109C95.3181 11.109 96.1921 11.3007 96.8054 11.684C97.4341 12.0673 97.8711 12.5733 98.1164 13.202C98.3617 13.8307 98.4844 14.5053 98.4844 15.226V19.711C98.4844 19.941 98.5457 20.1633 98.6684 20.378C98.8064 20.5773 99.0671 20.677 99.4504 20.677H99.7034V23.115H99.1744ZM91.9524 19.688C91.9524 20.102 92.0444 20.4317 92.2284 20.677C92.4124 20.907 92.6807 21.022 93.0334 21.022C93.3861 21.022 93.7847 20.93 94.2294 20.746C94.6741 20.562 95.2491 20.1327 95.9544 19.458V18.469C95.1571 18.331 94.3751 18.262 93.6084 18.262C93.0104 18.262 92.5811 18.3847 92.3204 18.63C92.0751 18.8753 91.9524 19.228 91.9524 19.688ZM111.683 24.173C111.683 25.415 111.192 26.381 110.211 27.071C109.245 27.7763 107.895 28.129 106.163 28.129C105.35 28.129 104.491 28.037 103.587 27.853C102.682 27.669 101.846 27.3623 101.08 26.933L101.839 24.84C102.575 25.208 103.303 25.4687 104.024 25.622C104.744 25.7907 105.45 25.875 106.14 25.875C107.106 25.875 107.842 25.7447 108.348 25.484C108.854 25.2233 109.107 24.8783 109.107 24.449C109.107 23.7897 108.716 23.46 107.934 23.46H105.174C104.422 23.46 103.817 23.3373 103.357 23.092C102.897 22.8467 102.559 22.5323 102.345 22.149C102.13 21.7503 102.023 21.3363 102.023 20.907C102.023 20.4623 102.115 20.0483 102.299 19.665C102.498 19.2663 102.766 18.8983 103.104 18.561C102.552 18.2237 102.107 17.7713 101.77 17.204C101.448 16.6367 101.287 15.9543 101.287 15.157C101.287 14.2523 101.478 13.501 101.862 12.903C102.245 12.305 102.766 11.8603 103.426 11.569C104.1 11.2623 104.844 11.109 105.657 11.109H106.048C106.354 11.109 106.653 11.132 106.945 11.178C107.236 11.2087 107.512 11.2623 107.773 11.339H111.936V13.593L109.636 13.225C109.866 13.4703 110.042 13.777 110.165 14.145C110.303 14.4977 110.372 14.9347 110.372 15.456C110.372 16.238 110.172 16.9127 109.774 17.48C109.39 18.032 108.869 18.4613 108.21 18.768C107.566 19.0593 106.845 19.205 106.048 19.205H105.657C105.35 19.205 105.059 19.182 104.783 19.136C104.614 19.32 104.491 19.5117 104.415 19.711C104.338 19.895 104.3 20.0713 104.3 20.24C104.3 20.7767 104.645 21.045 105.335 21.045H108.141C109.199 21.045 110.05 21.321 110.694 21.873C111.353 22.4097 111.683 23.1763 111.683 24.173ZM106.048 17.043C106.523 17.043 106.937 16.882 107.29 16.56C107.658 16.238 107.842 15.7703 107.842 15.157C107.842 14.5437 107.658 14.076 107.29 13.754C106.937 13.432 106.523 13.271 106.048 13.271H105.657C105.166 13.271 104.737 13.432 104.369 13.754C104.016 14.076 103.84 14.5437 103.84 15.157C103.84 15.7703 104.016 16.238 104.369 16.56C104.737 16.882 105.166 17.043 105.657 17.043H106.048ZM114.563 23V7.36H119.715C121.356 7.36 122.583 7.774 123.395 8.602C124.223 9.43 124.637 10.534 124.637 11.914V13.133C124.637 14.513 124.223 15.6247 123.395 16.468C122.583 17.296 121.356 17.71 119.715 17.71H117.323V23H114.563ZM119.715 10.005H117.323V15.065H119.715C120.39 15.065 120.904 14.8963 121.256 14.559C121.624 14.2217 121.808 13.7463 121.808 13.133V11.914C121.808 11.316 121.624 10.8483 121.256 10.511C120.904 10.1737 120.39 10.005 119.715 10.005ZM136.145 23.115C135.363 23.115 134.734 22.954 134.259 22.632C133.799 22.31 133.462 21.9113 133.247 21.436C132.588 22.0493 131.951 22.5017 131.338 22.793C130.725 23.0843 130.065 23.23 129.36 23.23C128.333 23.23 127.574 22.9003 127.083 22.241C126.608 21.5817 126.37 20.746 126.37 19.734C126.37 19.0593 126.493 18.469 126.738 17.963C126.999 17.4417 127.42 17.0353 128.003 16.744C128.586 16.4527 129.383 16.307 130.395 16.307C130.794 16.307 131.208 16.3377 131.637 16.399C132.066 16.445 132.496 16.5063 132.925 16.583V15.226C132.925 14.582 132.749 14.145 132.396 13.915C132.043 13.6697 131.568 13.547 130.97 13.547C130.51 13.547 130.004 13.6083 129.452 13.731C128.915 13.8537 128.333 14.0453 127.704 14.306L126.945 12.052C128.494 11.4233 129.897 11.109 131.154 11.109C132.289 11.109 133.163 11.3007 133.776 11.684C134.405 12.0673 134.842 12.5733 135.087 13.202C135.332 13.8307 135.455 14.5053 135.455 15.226V19.711C135.455 19.941 135.516 20.1633 135.639 20.378C135.777 20.5773 136.038 20.677 136.421 20.677H136.674V23.115H136.145ZM128.923 19.688C128.923 20.102 129.015 20.4317 129.199 20.677C129.383 20.907 129.651 21.022 130.004 21.022C130.357 21.022 130.755 20.93 131.2 20.746C131.645 20.562 132.22 20.1327 132.925 19.458V18.469C132.128 18.331 131.346 18.262 130.579 18.262C129.981 18.262 129.552 18.3847 129.291 18.63C129.046 18.8753 128.923 19.228 128.923 19.688ZM145.548 13.754C144.828 13.754 144.138 13.869 143.478 14.099C142.834 14.3137 142.213 14.6663 141.615 15.157V23H138.97V11.339H141.477V13.133C142.259 12.397 142.957 11.8757 143.57 11.569C144.184 11.2623 144.843 11.109 145.548 11.109V13.754ZM154.88 22.609C154.481 22.793 154.021 22.9387 153.5 23.046C152.979 23.1687 152.45 23.23 151.913 23.23C151.024 23.23 150.311 23.046 149.774 22.678C149.237 22.31 148.846 21.7963 148.601 21.137C148.371 20.4777 148.256 19.7263 148.256 18.883V13.639H146.37V11.339H148.256V8.303H150.901V11.339H154.535V13.639H150.901V18.883C150.901 19.5883 151.031 20.079 151.292 20.355C151.568 20.6157 151.959 20.746 152.465 20.746C152.71 20.746 152.971 20.723 153.247 20.677C153.538 20.6157 153.86 20.516 154.213 20.378L154.88 22.609Z" fill="black"/>
<path d="M62.21 34.495C62.5967 34.495 62.79 34.3517 62.79 34.065C62.79 33.9483 62.76 33.8567 62.7 33.79C62.6433 33.7233 62.5367 33.665 62.38 33.615L61.97 33.48C61.48 33.32 61.235 32.9983 61.235 32.515C61.235 32.235 61.3217 32.005 61.495 31.825C61.6717 31.6417 61.9467 31.55 62.32 31.55C62.4767 31.55 62.6317 31.5683 62.785 31.605C62.9383 31.6383 63.1017 31.6933 63.275 31.77L63.09 32.285C62.93 32.2217 62.7933 32.1767 62.68 32.15C62.57 32.12 62.4567 32.105 62.34 32.105C62.1867 32.105 62.065 32.1333 61.975 32.19C61.8883 32.2433 61.845 32.3417 61.845 32.485C61.845 32.5917 61.875 32.68 61.935 32.75C61.9983 32.8167 62.1017 32.8733 62.245 32.92L62.655 33.055C62.9017 33.1383 63.0867 33.26 63.21 33.42C63.3367 33.5767 63.4 33.785 63.4 34.045C63.4 34.345 63.305 34.5883 63.115 34.775C62.925 34.9583 62.6267 35.05 62.22 35.05C62.06 35.05 61.8933 35.0317 61.72 34.995C61.55 34.955 61.3633 34.8883 61.16 34.795L61.345 34.28C61.5317 34.36 61.69 34.4167 61.82 34.45C61.9533 34.48 62.0833 34.495 62.21 34.495ZM66.2779 32.945L66.4679 34.205L67.1479 31.6H67.6879L68.3629 34.185L68.5729 32.945L68.8329 31.6H69.4429L68.6779 35H68.0629L67.4079 32.47L66.7479 35H66.1329L65.3679 31.6H66.0179L66.2779 32.945ZM73.3525 35L73.1425 34.335H71.9775L71.7675 35H71.1725L72.3075 31.6H72.8375L73.9775 35H73.3525ZM72.3025 33.295L72.1475 33.785H72.9675L72.8125 33.295L72.5625 32.435L72.3025 33.295ZM78.3477 34.78C78.2644 34.83 78.1261 34.8883 77.9327 34.955C77.7427 35.0183 77.5194 35.05 77.2627 35.05C76.9727 35.05 76.7294 34.99 76.5327 34.87C76.3394 34.75 76.1927 34.585 76.0927 34.375C75.9927 34.165 75.9427 33.925 75.9427 33.655V32.94C75.9427 32.6633 75.9927 32.4217 76.0927 32.215C76.1927 32.005 76.3411 31.8417 76.5377 31.725C76.7377 31.6083 76.9877 31.55 77.2877 31.55C77.4344 31.55 77.5861 31.5667 77.7427 31.6C77.8994 31.63 78.0711 31.6867 78.2577 31.77L78.0727 32.295C77.9094 32.2317 77.7677 32.1867 77.6477 32.16C77.5311 32.13 77.4144 32.115 77.2977 32.115C77.0377 32.115 76.8494 32.19 76.7327 32.34C76.6161 32.4867 76.5577 32.6867 76.5577 32.94V33.655C76.5577 33.895 76.6161 34.0917 76.7327 34.245C76.8527 34.3983 77.0394 34.475 77.2927 34.475C77.3694 34.475 77.4527 34.4683 77.5427 34.455C77.6327 34.4417 77.7194 34.4233 77.8027 34.4V33.655H77.2527V33.13H78.3477V34.78ZM83.0104 34.78C82.9271 34.83 82.7888 34.8883 82.5954 34.955C82.4054 35.0183 82.1821 35.05 81.9254 35.05C81.6354 35.05 81.3921 34.99 81.1954 34.87C81.0021 34.75 80.8554 34.585 80.7554 34.375C80.6554 34.165 80.6054 33.925 80.6054 33.655V32.94C80.6054 32.6633 80.6554 32.4217 80.7554 32.215C80.8554 32.005 81.0038 31.8417 81.2004 31.725C81.4004 31.6083 81.6504 31.55 81.9504 31.55C82.0971 31.55 82.2488 31.5667 82.4054 31.6C82.5621 31.63 82.7338 31.6867 82.9204 31.77L82.7354 32.295C82.5721 32.2317 82.4304 32.1867 82.3104 32.16C82.1938 32.13 82.0771 32.115 81.9604 32.115C81.7004 32.115 81.5121 32.19 81.3954 32.34C81.2788 32.4867 81.2204 32.6867 81.2204 32.94V33.655C81.2204 33.895 81.2788 34.0917 81.3954 34.245C81.5154 34.3983 81.7021 34.475 81.9554 34.475C82.0321 34.475 82.1154 34.4683 82.2054 34.455C82.2954 34.4417 82.3821 34.4233 82.4654 34.4V33.655H81.9154V33.13H83.0104V34.78ZM87.3931 34.425V35H85.4231V31.6H87.3431V32.175H86.0231V32.99H87.1931V33.565H86.0231V34.425H87.3931ZM90.3538 33.75V35H89.7538V31.6H90.8888C91.2321 31.6 91.4955 31.6883 91.6788 31.865C91.8655 32.0383 91.9588 32.2717 91.9588 32.565V32.78C91.9588 32.9733 91.9171 33.1433 91.8338 33.29C91.7505 33.4367 91.6305 33.5483 91.4738 33.625C91.7471 34.0917 91.9805 34.55 92.1738 35H91.4888C91.3221 34.5833 91.1238 34.1667 90.8938 33.75H90.3538ZM90.8888 32.15H90.3538V33.2H90.8888C91.0355 33.2 91.1471 33.1633 91.2238 33.09C91.3038 33.0133 91.3438 32.91 91.3438 32.78V32.565C91.3438 32.4383 91.3038 32.3383 91.2238 32.265C91.1471 32.1883 91.0355 32.15 90.8888 32.15ZM98.8416 33.695H97.7016V35H97.1016V31.6H98.9916V32.175H97.7016V33.12H98.8416V33.695ZM101.876 35H101.276V31.6H101.876V35ZM106.424 34.425V35H104.464V31.6H105.064V34.425H106.424ZM110.618 34.425V35H108.648V31.6H110.568V32.175H109.248V32.99H110.418V33.565H109.248V34.425H110.618ZM117.88 34.78C117.797 34.83 117.658 34.8883 117.465 34.955C117.275 35.0183 117.052 35.05 116.795 35.05C116.505 35.05 116.262 34.99 116.065 34.87C115.872 34.75 115.725 34.585 115.625 34.375C115.525 34.165 115.475 33.925 115.475 33.655V32.94C115.475 32.6633 115.525 32.4217 115.625 32.215C115.725 32.005 115.873 31.8417 116.07 31.725C116.27 31.6083 116.52 31.55 116.82 31.55C116.967 31.55 117.118 31.5667 117.275 31.6C117.432 31.63 117.603 31.6867 117.79 31.77L117.605 32.295C117.442 32.2317 117.3 32.1867 117.18 32.16C117.063 32.13 116.947 32.115 116.83 32.115C116.57 32.115 116.382 32.19 116.265 32.34C116.148 32.4867 116.09 32.6867 116.09 32.94V33.655C116.09 33.895 116.148 34.0917 116.265 34.245C116.385 34.3983 116.572 34.475 116.825 34.475C116.902 34.475 116.985 34.4683 117.075 34.455C117.165 34.4417 117.252 34.4233 117.335 34.4V33.655H116.785V33.13H117.88V34.78ZM122.263 34.425V35H120.293V31.6H122.213V32.175H120.893V32.99H122.063V33.565H120.893V34.425H122.263ZM124.623 35V31.6H125.173C125.437 31.9433 125.687 32.3067 125.923 32.69C126.16 33.07 126.375 33.4617 126.568 33.865L126.523 32.85V31.6H127.098V35H126.548C126.335 34.58 126.113 34.1583 125.883 33.735C125.657 33.3083 125.415 32.9067 125.158 32.53L125.198 33.7V35H124.623ZM131.656 34.425V35H129.686V31.6H131.606V32.175H130.286V32.99H131.456V33.565H130.286V34.425H131.656ZM134.617 33.75V35H134.017V31.6H135.152C135.495 31.6 135.759 31.6883 135.942 31.865C136.129 32.0383 136.222 32.2717 136.222 32.565V32.78C136.222 32.9733 136.18 33.1433 136.097 33.29C136.014 33.4367 135.894 33.5483 135.737 33.625C136.01 34.0917 136.244 34.55 136.437 35H135.752C135.585 34.5833 135.387 34.1667 135.157 33.75H134.617ZM135.152 32.15H134.617V33.2H135.152C135.299 33.2 135.41 33.1633 135.487 33.09C135.567 33.0133 135.607 32.91 135.607 32.78V32.565C135.607 32.4383 135.567 32.3383 135.487 32.265C135.41 32.1883 135.299 32.15 135.152 32.15ZM140.524 35L140.314 34.335H139.149L138.939 35H138.344L139.479 31.6H140.009L141.149 35H140.524ZM139.474 33.295L139.319 33.785H140.139L139.984 33.295L139.734 32.435L139.474 33.295ZM142.635 32.175V31.6H145.135V32.175H144.185V35H143.585V32.175H142.635ZM149.727 32.94V33.655C149.727 34.0883 149.618 34.43 149.402 34.68C149.185 34.9267 148.868 35.05 148.452 35.05C148.032 35.05 147.713 34.9267 147.497 34.68C147.283 34.43 147.177 34.0883 147.177 33.655V32.94C147.177 32.5067 147.283 32.1667 147.497 31.92C147.713 31.6733 148.032 31.55 148.452 31.55C148.868 31.55 149.185 31.6733 149.402 31.92C149.618 32.1667 149.727 32.5067 149.727 32.94ZM149.112 32.94C149.112 32.6667 149.058 32.4617 148.952 32.325C148.845 32.185 148.678 32.115 148.452 32.115C148.225 32.115 148.058 32.185 147.952 32.325C147.845 32.4617 147.792 32.6667 147.792 32.94V33.655C147.792 33.9283 147.845 34.135 147.952 34.275C148.058 34.415 148.225 34.485 148.452 34.485C148.678 34.485 148.845 34.415 148.952 34.275C149.058 34.135 149.112 33.9283 149.112 33.655V32.94ZM152.77 33.75V35H152.17V31.6H153.305C153.648 31.6 153.911 31.6883 154.095 31.865C154.281 32.0383 154.375 32.2717 154.375 32.565V32.78C154.375 32.9733 154.333 33.1433 154.25 33.29C154.166 33.4367 154.046 33.5483 153.89 33.625C154.163 34.0917 154.396 34.55 154.59 35H153.905C153.738 34.5833 153.54 34.1667 153.31 33.75H152.77ZM153.305 32.15H152.77V33.2H153.305C153.451 33.2 153.563 33.1633 153.64 33.09C153.72 33.0133 153.76 32.91 153.76 32.78V32.565C153.76 32.4383 153.72 32.3383 153.64 32.265C153.563 32.1883 153.451 32.15 153.305 32.15Z" fill="black"/>
<path d="M62 30H156" stroke="black" stroke-width="0.5" stroke-linecap="square"/>
<path d="M14.4 34.36V38.36H10.84C7.96 38.36 5.97333 37.6133 4.88 36.12C3.78667 34.6533 3.53333 32.6667 4.12 30.16L4.92 26.72C5.21333 25.52 5.18667 24.5467 4.84 23.8C4.52 23.0533 3.61333 22.68 2.12 22.68H0V18.68H2.12C3.61333 18.68 4.52 18.3067 4.84 17.56C5.18667 16.8133 5.21333 15.84 4.92 14.64L4.12 11.2C3.53333 8.69333 3.78667 6.70667 4.88 5.24C5.97333 3.74667 7.96 3 10.84 3H14.4V7H10.84C9.85333 7 9.18667 7.32 8.84 7.96C8.49333 8.6 8.44 9.42667 8.68 10.44L9.48 13.88C9.90667 15.72 9.85333 17.2133 9.32 18.36C8.81333 19.5067 7.89333 20.28 6.56 20.68C7.89333 21.08 8.82667 21.8533 9.36 23C9.89333 24.12 9.93333 25.6133 9.48 27.48L8.68 30.92C8.44 31.9067 8.49333 32.72 8.84 33.36C9.18667 34.0267 9.85333 34.36 10.84 34.36H14.4Z" fill="black"/>
<path d="M48.7778 30.16C49.3645 32.6667 49.1111 34.6533 48.0178 36.12C46.9245 37.6133 44.9378 38.36 42.0578 38.36H38.4978V34.36H42.0578C43.0445 34.36 43.7111 34.0267 44.0578 33.36C44.4045 32.72 44.4578 31.9067 44.2178 30.92L43.4178 27.48C42.9911 25.64 43.0311 24.1467 43.5378 23C44.0711 21.8533 45.0045 21.08 46.3378 20.68C45.0045 20.28 44.0711 19.52 43.5378 18.4C43.0311 17.2533 42.9911 15.7467 43.4178 13.88L44.2178 10.44C44.4578 9.42667 44.4045 8.6 44.0578 7.96C43.7111 7.32 43.0445 7 42.0578 7H38.4978V3H42.0578C44.9378 3 46.9245 3.74667 48.0178 5.24C49.1111 6.70667 49.3645 8.69333 48.7778 11.2L47.9778 14.64C47.7111 15.84 47.7378 16.8133 48.0578 17.56C48.3778 18.3067 49.2845 18.68 50.7778 18.68H52.8978V22.68H50.7778C49.2845 22.68 48.3778 23.0533 48.0578 23.8C47.7378 24.5467 47.7111 25.52 47.9778 26.72L48.7778 30.16Z" fill="black"/>
<path d="M15 12H38" stroke="#FFE500" stroke-width="3" stroke-linecap="round"/>
<path d="M15 18H38" stroke="#FF0000" stroke-width="3" stroke-linecap="round"/>
<path d="M15 24H38" stroke="#0066FF" stroke-width="3" stroke-linecap="round"/>
<path d="M15 30H26" stroke="#05FF00" stroke-width="3" stroke-linecap="round"/>
<path d="M31 30L38 30" stroke="#8F00FF" stroke-width="3" stroke-linecap="round"/>
</svg>
